<svg xmlns="http://www.w3.org/2000/svg" viewBox="0 0 800 1051">
  <path d="M281.8 1037.7h-.8l-103.8-5-138.7-6.2-4-23 4-12.7 4-81.3 5.7-89.7 5-107-3.2-15.6-7.6-6-4.6-18-15.8-.5-5 4.7-7 18.3-9.6-7.2 3.4-16L1 668l8.3-23.8 9.3-12.6.5-7.7 5.8-11-12-20.4 6.3-9.3L19 572l-9.5-23.8.2-37.7-7.7-7.5 2.8-14 5.4-13.2-1-8.2 4-5.2 3.6-17.4 8.5-7.7 3.8-8.7 7.7-5.3 3.8-11.8-3.5-14.3-2.2-25.4 5.6-6.5 5.7-15.7-.8-19.3L33.5 300l-11-15.5-2-11.4 7.5-32 .5-18 9.6-18.6-.4-6-13-16.7 8-24 5-7.8.3-16.6-4.5-8.8 3.7-10 73.7-.4 33.5 1 35-.4 72.8 2.3 9.7 2.2h21.3l48.7 2.5 112.6-1 42-1.4 77.6-.8-9.5 6.4-2 5.7 6.5 10.2v12.5l5.5 7.6-17.4 24.4 1.3 4.4-6.6 9.8 1 7.5-15.2 20.5 21 45.7-1.4 5.3 6.4 12-7 9.2-11 4 7 7.2-7.8 20.5-11.5 3.5-6.4 15-13.4 11.5L480 366l-6.6 7 .5 9.6-17.2 9-9.3-4.4-7.6 4h-15l-8.4 6-6.4.7-1 8.7-9 10.6 5.7 13v.2l-5.4 19.4 7.2 14.2-3.3 13.8 4.7 12.7-11.6 21.8-12 16L384 559l-9 7-10.6 18 .8 20.5-6 13.6-8.3 9.4-11 5.6-9.2 12.3-1 14.6-6.4 11.7-1.6 15.2-12 7.8-2.3 15.4-5.3 10.7 5 8-3.5 11.6L300 770l-2.8 11.4 6.7 3.2-6 9.5 4.3 7.6-8 20.3-4 1.8-.8 22.3-3.7 4.2-2 18 6.8 11-.8 13.6-9.6 13.5 1.2 9.4 5.5 7.4-9 16-13.3 3.5-4.5 5 3 12.5-2.4 8.5-6.3 5-1.4 12.6 5 19.3 18.8 19.2 5 13.2zm-242.4-12.2l138 6 103 5-4.8-11.5-18.7-19.2-5.2-19.6 1.5-13 6.4-5.3 2-8-2.8-13 5-5.5 13-3.4 8.6-14.8-5.2-7-1.2-10 9.6-13.7.8-13-7-11L285 850l3.6-4 1-22.6 4-2 7.7-19.4-4.3-7.6 5.6-9-6.4-3.2 3-12 3.5-29.4 3.5-11.2-5-8 5.4-11.3 2.3-15.5 12-8 1.5-15 6.3-11.7 1-14.6 9.5-12.8 11.3-5.6 8-9 6-13.3-1-20.7 11-18.5 8.7-6.7 1.3-30.3 12.2-16.2 11.3-21.3-4.5-12.6 3.3-13.7-7.2-14.3 5.4-19.6-5.7-13.2 9-11 1.2-9.2 7-.6 8.3-6.2h15l7.8-4 9.3 4.3 16-8.4-.5-9.2 7-7.6 24-4.7 13-11.2L523 334l11.4-3.4 7.4-19.5-7.5-8 12-4.2 6.5-8.4-6.2-11.8 1.3-5.3-21-46L542 207l-1-7.6 6.5-9.7-1.3-4.4 17.3-24-5.4-7.3v-12.7L552 131l2.3-6.6 7-4.7-74 .8-42 1.4-112.7 1-48.7-2.6h-21.4l-9.7-2-72.8-2.4-35 .5-33.5-1-73 .4-3.3 8.7 4.2 8.6-.3 17-5.4 8-7.6 23.3L38.7 198l.5 6.7-9.7 18.7L29 241l-7.5 32.2 2 11 11 15.4L46 330.3l.7 19.5-6 16-5.3 6.3 2.2 25 3.4 14.5-4 12.4-7.7 5.2L26 438l-8.5 7.4-3.8 17.3-4 5 1.2 8-5.6 13.5-2.7 13.4 7.6 7.4v38l9.5 24 .3 11.7-6 9 11.8 20.5-5.8 11-.4 7.8-9.5 12.8-7.8 23 2.7 4.6L1.5 688l8 6 6.7-17.3 5.3-5 17 .5 4.8 18.4 7.6 6 3.2 16-5 107.2-5.5 89.7-4.2 81.4-4 12.4 4 22z"/>
  <path d="M626 1050.5h-.3l-133.8-4-70-2.5-141.5-6.4-5-12.7-18.8-19.3-5-19.6 1.4-13 6.5-5.2 2-8-2.8-12.8 5-5.6h.2l13-3.4 8.4-15-5.2-7-1.2-10 9.6-13.6.8-13-7-11 2.3-18.7 3.7-4 1-22.6 4-2 7.7-19.3-4.2-7.6 5.6-9-6.4-3 3-12.2 3.5-29.3 3.5-11.2-5-8 5.4-11.3 2.3-15.6 12-8 1.6-15 6.3-11.7 1-14.6 9.5-12.7h.2l11.2-5.7 8-9 6-13.3-1-20.7 11-18.5 8.7-6.6 1.4-30.3 12.2-16 11.3-21.5-4.7-12.6 3.3-14-7.2-14.2 5.4-19.6L399 417l9-11 1.3-9.2 7-.6 8.3-6.2h15l7.8-4 9.3 4.3 16-8.4-.4-9.4 7-7.6h.3l23.7-4.7 13-11.2 6.6-15 11.3-3.6 7.4-19.5-7.5-8 12-4.4 6.5-8.4-6.2-11.8 1.3-5.3-21-45.8 15.3-20.5-1-7.5 6.6-9.7-1.3-4.4 17.3-24-5.4-7.2V141l-6.5-10.2 2.3-6.6 8.2-5.5 2.7-11-2.2-11.5 8.7-6 5.8-11.2 5.2-4.5-2-6.2 10.7-25.7-6.7-12.2 11-1 13.2-15.2L624 2l16 21 7-1.8 7 5 4.3-3.4 8 2.4 10-23 4.7-2 2.2 24.3 5.8 97.3 4.6 64.2 4.5 76.2 7 142 4.5 105L713 609l5.5 89 6.6 8-3.6 6.4 2.8 6.5-4.5 13 2.6 19.4-7.4 9.8.7 15 5 12.8 8.8 2.5 6.3 7 10.3 19 19 13.8v.3l-1.3 25.6-3 11 2.2 7.7 26 20.8 9.6-.7 1 7-20.8 41.5-5.4 7-4.7 13.2-1.8 14-9.8 5L746 975l-13-.7-10.5 6.3-19 4-3.6 4-6 17.6-20.4-6-9.5 5-5.7 7 1.4 21.8-13-3.7-6 1.6-14.7 18.5zm-344.7-13.8l141 6.4 69.7 2.7 133.5 4 14.3-18.4 6.7-1.8 12 3.4-1.5-21 6.3-7.4 10-5.3 20 6 5.6-17 4-4.2 19-4 10.7-6.4 13.5.7 11 8.5 8.7-4.4 1.7-13.8 5-13.5 5.3-7 20.6-41-.8-5.8-9 .7-.2-.2-26.5-21.2-2-8.2 2.8-11.2 1.4-25-18.7-13.7L735 799l-6-6.7-9-2.5-5.2-13.3-.8-15.5 7.4-9.7-2.6-19 4.4-13.2-2.8-6.5 3.5-6.3-6.4-7.5v-.2l-5.5-89.3-3.4-100-4.6-104.8-6.8-142-4.5-76.3-4.6-64-5.7-97.4-2-23L677 3l-10 23.4-8.5-2.5-4.5 3.6-7-5.2-7.3 2-15.8-21-14.6 11.4L596 30.3l-10 1 6.3 11v.3l-10.7 25.6 2 6.5-5.6 5-5.7 11.2-8.4 5.6 2 11-3 11.7-8.3 5.5-2 5.8 6.5 10.2v12.6l5.5 7.6-17.4 24.3 1.3 4.4-6.6 9.8 1 7.5-15.2 20.4 21 45.7-1.4 5.4 6.4 12-7 9.2-11 4 7 7.2-7.8 20.6-11.5 3.5-6.4 15-13.4 11.5L480 366l-6.6 7 .5 9.6-17.2 9-9.3-4.4-7.6 4h-15l-8.4 6-6.4.7-1 8.7-9 10.6 5.7 13v.2l-5.4 19.4 7.2 14.2-3.3 13.8 4.7 12.7-11.6 21.8-12 16L384 559l-9 7-10.6 18 .8 20.5-6 13.6-8.3 9.4-11 5.6-9.2 12.3-1 14.6-6.4 11.7-1.6 15.2-12 7.8-2.3 15.4-5.3 10.7 5 8-3.5 11.6L300 770l-2.8 11.4 6.7 3.2-6 9.5 4.3 7.6-8 20.3-4 1.8-.8 22.3-3.7 4.2-2 18 6.8 11-.8 13.6-9.6 13.5 1.2 9.4 5.5 7.4-9 16-13.3 3.5-4.5 5 3 12.5-2.4 8.5-6.3 5-1.4 12.6 5 19.3 18.8 19.2 4.5 12.2z"/>
</svg>
