<svg id="Layer_1" data-name="Layer 1" xmlns="http://www.w3.org/2000/svg" viewBox="0 0 774.3 1016.4">
    <title>nhvt-new</title>
    <path d="M545.1,115.2h10.1l-3.7,2.4-.5,1.8-2.2.8-5.6-2.8-1.9,1.6-4.3,1.7-1.7,2.1-.4,3.8,1.7,3.2,1.2.9,1.9,4,1.5,1.8-.5,4.3.5,7.9,3,3.2,2.3,3.9-1,1.6-4,3.9.4,1.7-2.8,3.7-1.8,1.5v1.3l-1.5,1.5-3.1,1.4-1.2,2.6.5,1.6-2.3,2.6,1.3,4.3-1.5,1.3-1.3,3.8-1.6.3-1.8,2.2-.2,1.8,1.7,1.8-1.1,4.2.4,1.2-2,3.4-3.9,1.3-1.1,1.5.3,1.4-2.4,3-2,1.3-1.7,3.3-3.7,1v1.8l1.6,1.8v5.3l2.3.9-.3,2.1,1.5,1.4,2.3,4.2,1.5,1.1-.3,1.8,1.9,1.5-1.1,1.6,1.1,3.5-.6,1.8,1.8,1.4,2,.3-.7,2.2-.2,3.8,1,1.1,1.9.4.2,2,2.1-1.1,1.6,1.3.9,2.3-1,3,2.8,2.5-1.2,5.1,1,4.2-2.3,2.1,3.8,1.5,1,2.1,2.6,1.6-1.2,2.4-1.8,1.4-.9,1.8-2.7,2.9-3.1,1.1-1.6-.8-4.1-.4-1,.7-1.2,3.3,2.8,2.9,3.6,2.7.6,1.8-2.6,4.6-3.2,1.8,2,2,1,2.5-.2,2-3.2,3.4-1.1,3.1-2.8.8-1.8-.6-1.1,1.1-1.2,3.1-1.7.6-2.6-1.7-1.8,1-.2,2.5,1.7,1.8-1.3,1.4-2-.2-1.4,2.8-.5,3.5-.8,1.8-2,1.5-2.9.9.9,2.2-1.9.5-.3,1.3-6.7,4.7-2,.6-3.1-.4-2.7.5-1.8,3h-2l-1.8-1.7H472l-3.8,2.6-3.4-.2-3.3,2.7.7,2.9-1,1-3,.5-.4,2.5.9,1.1-1,1.9,1,3.5-1.8,2.1-4,1.1-5.4,3.6-2.6.3-2.2,1.2-3.3-1.3-5.7-2.9-1.3-.3-2.9.7-2.1,1.8-1.1,1.7-1.8.7-2.7-.8-5,.4-5-.4-1,.5-1,2.5-6.1,3-2.6.6-2.8-.8-1.1.8v6.5l-1.3,2.3-2.6,2.3-2,.6-1.6,1.6-1.9,3.5-.7,2.4,1.8,3,.4,2.9,1.6,3.5,1.1,1.1.6,2.2-1.6,4.8v3.6l-1.5,3.4-.4,3-1.3,1.4-.5,2.8,2.4,4,1.2,4.5,3.3,5.3-.5,1.2.2,5.5,2.3,2.2-1.1,2.6-1.2-.4-2.9,2.2-.7,3.8.6,3.5,1.1,1.6,2.6-2.7,2,.9.2,3.7-1.4,1.5-2.2.7,3.4,1.8-.2,1.9-1.6.2-1.3-1-2.6,1,1.2,3-3,4.4h-2.5l-.4,1.2,1.8,1.3-4.1,2.7-.6,2,1.1,1.9-1.3,1.9-.5,2.4-.9.9-2-1.2-2,3.5-1.8,1.1.4,3.8-3.7,3.2,1.4,3.7-.2,3.6-.6,2.4,1,1,1.7-1.2,2.5.7-1.3,2.8.6,1.2-1.6,2.8-3.8,1.4-.3,1.4.6,3.1-.4,4.7-.9,1.7-4,3.5-4.6,3.2-2.1,3.5-.2,1.7-3.2.7-.9,2.6,1.7,4.1-2.1,1.1-2.3.4-1.4,3.6,1.4,4.3v4.3l-1.8,5,1.2,3.4-.2,3-1.7,1.5-1.8,4.2-2,1.5-.4,1.5.2,4.3-3.3,1.8-4.6,7.1-8.9,5.4h-2l-1.4,2.7-2.5,2.6-2.9,4.4-2.3,2.4-.7,2.7-.2,5,.8,1.9-.8,4.5-2.3,4-.4,5.8-3.4,1.7v2.4l-1.5,2.1-.7,4.1,1.8,3V664l-1.1.5-5,4.5-4,1.5-2.6,1.6-1.8,2-1,4.5.4,3,.2,5.5-2.5,4.9-1.5.3-1.3,5.4.6,2.1,3.2,3.1,1.1,2.7-.3,5.2-.8,2.3-2,2.1-.3,1.4.5,5.4-1.5,4.9v2.9l-1.2,6.1-1.2,9.1-2.7,3-.8,3,.2,4.2.5,1.2,2.7,1.8h3.3l.4,1.1L291,763l-2.7,5.5.5,1.6,3.7,5.8-1.8,3.7-1.8,8-4,7.5-3.9,1.9-1,2.2v3.4l1.4,4.2-2,5.6.8,6.3-3.6,4,1.8,4-.4,1.7-2.2,2.3.2,6.6-1.5,3.3,1.4,3,3.1,1.3-.6,2.2,2.8,4.1-.6,3.8-1.7,1.5-.7,2,2.2,5.5-.3,1.9-2.6,4-5.4,5.4-1,1.8.4,2,1.6,2.7-.8,4.7,1.6,4.4,3.5,2.6.2,1.7-1.4,2-3.2.4-1.4,2.5-.2,1.6,1,2.6-3.5,4.2-2.2-.8-3.1,2.5-4.4,1.3-3,.4-4,3.2-.7,2,1.7,1.8.5,2.1-.2,4.4.8,3.9-.3,1.6-1.4,1.1-.4,5.3-2.7,3.3-3.5,1.7-.8,3.7-.3,3.3.5,2.7-.9,2.7,2.4,4.3,1,8.4.6,1.5.8,4.6,6,5.6,2.7,4.2v2.1l-2.4,2.3,1,1.9,3.6-1.5.6-1.7,2.2-.2,1.8,2.7,1.6,1,1,2.1.8,4.6,3.4,5,.7,2.5-45.2-2.2L172,998.6l-34.7-1.5-60.8-2.7-35.1-1.6H38.2L34.4,971l2.2-4.6-.9-2.5.6-5.4,1.9.3L39.4,934l.7-16.8,2-37.2,1.7-23.4,2.9-52,.8-11.4,1.9-43.5,1.9-38.7.9-21.5,1.4-1.4v-2.1l-1.2-2.7-1-.6.5-4-2.7-4.4-3-2.8-2.9-.9-1.4-2-2.4.2.4-2.5-1.3-.9,1.1-2,.4-3.9-2.2-3.2-.4-5.3-1.2-1.4L35.1,651l-2-1.3-2.9.5-4.1-.2-1.6,1.4-3.1-1.1-3.9.8.7,1.4-1.8,2.5,1,2.6L16,660.6l-1.8.4.5,1.7-1.3.6,1,2-.8,1.1.7,1.6-.5,1.4-1.6.3-.7,1.8-1.8.7-5.2-3.9L3.7,667l-2.3-1L1,663.4l2.6-4.8L3,655l1.7-3.2v-1.1L2,646.4l.5-3.2,2.2-2,1.3-4,1.9-4.3L9.3,627l-.5-1.5.9-1.8,2.4-2.3,2.3-4.7,2.4-2.4,2.1-2.9.4-7.4,4.4-7.7,1.2-3-1.1-1.9-.7-3.6-1.4-1.7-3.8-3.4-.5-2.8-1.4-2.9-2-1.6-.6-1.9,1.3-3.9,3.4-2.7,1.3-2.3L17,561.8v-2.6l2.2-5.8-.6-2.4-1.9-4.2-3.4-4.8-1.3-5.5-2-6.2,1-6.2-.2-7.2-1.5-5,2.1-12.2V498L10,493.8l-3.4-2.3-1.3-2-2.5-2-.2-1,1.8-7.1.9-6.2,3.8-7.7,1.5-5.1-1.1-7.9,3.9-5,1.2-6.3.9-1.5-.5-2.1.5-1.6,1.8-2.1-.3-3,2-1.5.5-1.5,2-1,1.3-1.8,2.5-1.5,3.3-6.7.3-1.7,2.1-1.6-.2-1.4,1.8-.5,1.8-1.8,1.9.2,1.1-2.2,2.1-6.1.6-3.4-.3-2.3-1.2-3L37,387.4l-.5-3.3.3-9.3-.8-4.1L34,365.8l.4-6,5.3-6.2,1.4-5.5,4.2-9.9.8-4.7L44.4,328l.5-3.6-.2-4.9-1.2-3.6-.5-5.7-1.7-2.7-2.2-2.5-.2-4.5-1.8-1.3-.8-2.9-2-2.9v-1.9l-1.1-1.5-3.8-2.4-.9-1.8-2-2-1.9-3.1-.3-2.6-1.7-2.9,1.1-1.7.3-2.2-1.6-4.9-1.9-2,1.2-5.4-.2-2.1,2.3-1.9-1.2-1.7,1.5-2.7-.3-1.5,2.6-3.6-.7-1.1.5-3.4,1.1-.4-.8-2.5,1.4-1,1.1-2.7L28,233.1l.5-10.9v-6.3l.5-1.3,2.7-3.9,2.2-6.8,3.2-3.5.8-2.6-.5-6.2-4-4.7-.9-1.6L29.2,183l-2.6-3.9-1.1-.7-.5-2.7.5-4.7,2.2-2.1.8-1.6,2.7-11.8,1.2-2.8,2.4-2.6,1.9-1.2.8-3.7-.2-7.5.6-6.7-.2-2.1-1.6-1.8-2.2-4-.4-2.6,1.3-2.7,2.1-6.4H62.8l2.3-.2,42.8-.3,5.8.4,1.5-.4,3.1.5h9.3l12.9.6h8.7l1.6-.3,23.5-.2,18.8.6,28.3.5,23.4,1.2,2.1.7,7.3,1.3,6.5.2,14.2-.2,8.9.2,13.1.9,14.5.5,10.6.8,5-.2,5.8.2,30.5-.6,15.9.3,22-.4,10.1-.4L422,117l8.9.3,40.7-1.3h20.9l22.6-.5h13.6l16.4-.3Z" transform="translate(-0.3 -0.1)" fill="none" stroke="#000" stroke-miterlimit="10" stroke-width="4"/>
    <path d="M545.1,115.2l.3-5.1L547,107l.8-2.9-.5-1.5-2.1.3-1.2-1.4,2-2.3-.4-1.2.9-2.9-.6-1.8,2.5-1.5.8-1.9,2.5-1.7,2.5-.5,1-3.5,1.3-.8,1.2-2.5,1.7-1.2.3-2.9,1.8-.4.8-1.8,2.7-2.4.6-2.3-.6-2.3L562.9,66l.7-3.7,1.8-1.6.9-3.1-.3-1.8,1.5-1.8,1.3-3.4V48.3l1.2-.5,1.5-2.7v-2l2.1-2.1-1.5-4.6-3.4-1-.5-1.3-5.9-4.5-1.5-1.7,1.5-.8,2.5,1.9,2.5.6,2.3-2.4,2.5-1.5,2.3.5.7,1.6,2.4.9,1.8-3.9,3.8-1.3,1.6-2V20.1l-1.8-3.6.7-1.3,2.5.2,4.2-1.5,1.3-2.7,3-.9,1.8-1.8h1.5l2.2-3.6,4.8-2.1,1.2,2.7,1.9-.7,2,1.3.5,6.2,4.1,3.6h1.1l1.4,2.4,1.1.6,2,4.1,2-.6,2.4.2,2.4-1.5,1.8.3.5,1.2,2,1.1,2.5,2.4,1.4-1.9,2.9-1.6,4,3,3.9-.7,1.6-3.7,2.2-3.4,1.1-4.8,2.3-1.6-1-2.3,1.5-3.9,2-2.8L659.4,1l2.1,22.8,1.4,25.7,1,14.3,3.3,54.1.3,1.9,1.6,26.9,2.5,33.4,2.2,34.8.3,7.4,1.8,31.5,1.5,37.9,1.2,22.6.7,10.2,1.8,37.2.8,14.5.5,15.1.8,16.7v5.2l2.5,59.2,1,20.3,2,48.5V549l.9,22.2.4,18.2,1.3,15.3.9,14.8v5.5l2,29.5,1,21.3,1.2.5,3.6,3.5.3,2.2,1.2,1.2-.7,2.6-2.8,3.6,1.5,1.4.3,2.5.9,2.4-.8,2.4-.6,5.2-.8.6-2.1,4.5.5,2.1-1.8,1.3,1,1.3,1.8.2,1.2,2.6-1.8,6.3,1.5,2.9.2,1.8-2.2,1.3.2,2.2-1.8,2.5-2.3,1.5-1.1,2v4.2l1.1,1.6V744l-1.3.5.6,2.6.3,4.1,2.3,3.4.5,3.6,2.2,5.5,1.9,1,1.1,2.5,5.5-1.1,1.3.2.6,2.8,4.1,3.6,1.3.2v3.8l1.2,2h1.5l.3,2.4-1.7,2,2,.8,1.2,2.4,2.8,1,1.4,4,2.1.2,1.2,2.2,2,.5,1.1,3,4.7,1.1,1.4,4.4,3.9.8,2,1.2.7,3.5,1.7,1.7-1,2.9-1.1,1-1,5.8v3.2l-2.1,2,1.4,4.7-1.3,2.2-.2,4.3-1.3,4.3,1.1,3.3,1,4.4,5.2,3.8,4.3,4,2.9,2.2,1.4,1.9,3.2.9,1.4,1.6,1.9,3.7,4.2,1,1.1,1.4,9-.7.8,6.1-2.2.6v5.5l-1.9,4.4-2.7,1.9-1,2-.9,4-1.4.4-1.4,2.8.7.9-1.7,2.4-.2,1.5-1.9.2-1.3,1.8-.9,2.5v2.5l-2.1,2.2.6,1.4-1.7,2.8-1,.2-1.7,2.4-.3,2.6-2.2,1.6-1,3.8v3.5l-2.2,1.7-1.3,3.8v5.7l-1.3,3.1-.4,4.8-3.8,1.3-1.9,1.5-3.2,1.6-10.8-8.3-4.8-1.5h-3.5l-4.5.8-5.2,3.3-4.9,2.8-18.5,4-3.7,4-2.6,6.1-3,10.4-19.6-5.7-4.9,2.3-4.5,2.7-5.8,7,1.3,20.7-12.1-3.5-6.2,1.6-2.9,2.4-3.5,4.1-3.1,5.7-4.3,5.6H595.9l-6.2-.4-23.1-.7-89.9-2.7-52.5-2-15.1-.5-41-1.9-46.3-1.8-49.5-2.4-.7-2.5-3.4-5-.8-4.6-1-2.1-1.6-1-1.8-2.7-2.2.2-.6,1.7L257,989l-1-1.9,2.4-2.3v-2.1l-2.7-4.2-6-5.6-.8-4.6-.6-1.5-1-8.4-2.4-4.3.9-2.7-.6-2.7.3-3.3.8-3.7,3.5-1.7,2.7-3.3.4-5.3,1.4-1.1.3-1.6-.8-3.9.2-4.4-.5-2.1-1.7-1.8.7-2,4-3.2,3-.4,4.4-1.3,3.1-2.4,2.2.8,3.5-4.2-1-2.6.2-1.5,1.4-2.5,3.2-.4,1.4-2-.2-1.7-3.5-2.6-1.6-4.4.8-4.7-1.6-2.7-.4-2,1-1.8,5.4-5.4,2.6-4,.3-1.9-2.2-5.5.7-2.1,1.6-1.5.6-3.8-2.8-4.1.6-2.2-3.1-1.2-1.4-3L276,837l-.2-6.6,2.2-2.2.3-1.7-1.8-4,3.6-4-.7-6.3,2-5.6-1.5-4.2V799l1-2.2,3.9-1.9,4-7.5,1.8-8,1.8-3.7-3.7-5.8-.5-1.5L291,763l2.9-3.6-.4-1.1h-3.3l-2.7-1.8-.5-1.2-.2-4.1.8-3,2.7-3,1.2-9.1,1.2-6.1v-2.9l1.5-4.9-.5-5.4.3-1.4,2-2.1.8-2.3.3-5.2-1.1-2.7-3.2-3.1-.6-2.1,1.3-5.4,1.5-.3,2.5-4.9-.2-5.5-.4-2.9,1-4.5,1.8-2.1,2.6-1.6,4-1.5,5-4.5,1.1-.5v-2.3l-1.8-3,.7-4.1,1.5-2.1V650l3.4-1.7.4-5.8,2.4-4,.8-4.5L319,632l.2-5,.7-2.7,2.3-2.4,2.9-4.4,2.5-2.6,1.4-2.7h2l8.9-5.4,4.6-7,3.3-1.8-.2-4.3.4-1.5,2-1.5,1.8-4.2,1.7-1.5.2-3-1.2-3.4,1.8-5v-4.3l-1.4-4.3,1.4-3.6,2.3-.4,2.1-1.1-1.7-4.1.9-2.6,3.2-.7.2-1.7,2.1-3.5,4.6-3.2,4-3.5.9-1.7.4-4.7-.6-3.1.3-1.4,3.8-1.4,1.6-2.8-.6-1.2,1.3-2.8-2.5-.7-1.7,1.2-1-1,.6-2.4.2-3.6-1.5-3.7,3.7-3.2-.4-3.8,1.8-1.1,1.9-3.5,2,1.2.9-.9.5-2.4,1.3-1.9-1.1-1.9.6-2,4.1-2.7-1.8-1.3.5-1.2h2.5l3-4.4-1.2-3,2.6-1,1.3,1,1.6-.2.2-1.8-3.4-1.8,2.2-.7,1.4-1.5-.2-3.7-2-.9-2.6,2.7-1.1-1.6-.6-3.5.7-3.8,2.9-2.2,1.3.4,1.1-2.7-2.3-2.2-.2-5.5.5-1.1-3.3-5.3-1.2-4.5-2.4-4,.5-2.8,1.3-1.4.4-3,1.5-3.4v-3.6l1.6-4.8-.6-2.2-1.1-1.1-1.6-3.5-.4-2.9-1.8-3,.7-2.4,1.8-3.5,1.5-1.6,2-.6,2.6-2.2,1.3-2.3v-6.5l1.1-.8,2.8.8,2.6-.6,6.1-3,1-2.5,1-.5,5,.4,5-.5,2.7.8,1.8-.7,1.1-1.7,2.1-1.7,2.9-.7,1.3.3,5.7,2.9,3.3,1.3,2.2-1.2,2.6-.3,5.4-3.6,4-1.1,1.8-2.1-1-3.5,1-1.9-.9-1.1.4-2.5,3-.5,1-1-.7-2.9,3.3-2.7,3.4.2,3.8-2.6h2.5l1.8,1.7,2-.2,1.8-3,2.7-.5,3.1.4,2-.6,6.7-4.7.3-1.3,1.9-.5-.9-2.2,2.9-.8,2-1.5.8-1.8.5-3.5,1.4-2.8,2,.2,1.3-1.4L505,327l.2-2.4,1.8-1,2.6,1.7,1.6-.6,1.2-3.1,1.1-1.1,1.8.6,2.8-.8,1.1-3.1,3.2-3.4.2-2-1-2.5-2-2,3.2-1.8,2.6-4.6-.6-1.8-3.6-2.7-2.8-2.9,1.2-3.3,1-.7,4.1.4,1.6.8,3.1-1.1,2.7-2.9.9-1.8,1.8-1.4,1.2-2.4-2.6-1.6-1.1-2.1-3.8-1.5,2.3-2.1-1-4.2,1.2-5.1-2.8-2.5,1-3-.9-2.3-1.6-1.3-2.1,1.2-.2-2-1.9-.4-1-1.1.3-3.8.7-2.2-2-.3-1.7-1.4.6-1.8-1.1-3.5,1.1-1.6-1.9-1.5.3-1.8-1.5-1.1-2.3-4.2-1.5-1.4.3-2.1-2.3-.9v-5.3l-1.7-1.8v-1.8l3.7-1,1.7-3.3,2-1.3,2.4-3-.2-1.4,1.1-1.5,3.9-1.3,2-3.4-.4-1.2,1.1-4.2-1.7-1.8.2-1.8,1.8-2.2,1.6-.3,1.3-3.8,1.5-1.3-1.3-4.3,2.3-2.6-.5-1.6,1.2-2.6,3.1-1.4,1.5-1.5v-1.3l1.8-1.5,2.8-3.7-.4-1.7,4-4,1-1.6-2.3-4-3-3.2-.5-7.9.5-4.3-1.5-1.8-1.9-4-1.2-.9-1.7-3.2.4-3.8,1.7-2.1,4.3-1.7,1.9-1.6,5.6,2.8,2.2-.8.5-1.8,3.7-2.4H545.1Z" transform="translate(-0.3 -0.1)" fill="none" stroke="#000" stroke-miterlimit="10" stroke-width="4"/></svg>