<svg xmlns="http://www.w3.org/2000/svg" id="Layer_1" data-name="Layer 1" viewBox="0 0 800.9 353.8">
  <defs>
    <style>
      .cls-1{fill:none;stroke:#231f20;stroke-miterlimit:10;stroke-width:3;}
    </style>
  </defs>
  <title>
    va
  </title>
  <g id="va-6591">
    <path d="M795.6 183l-2 1-4.2 4.6-3.5 5.4-2.7 5.4-3.4 5.4-2.7 3.3-7 11.7-2.5 5.4-3.4 5.8-4.4 4.5 1 1.3-1 3 2.4 1.4-3 2-2.7-.8-3 5-1 3.8-1.8 10-.8 8.5v4.6h-3l-1-3-2.5-4 .2-5.5-2.2-2v-3l1.3-2.6-1-1.6 2.2-6.8 2.6-5.4-1.7-2.3 1.8-4 2.6-1.5-2.6-4.4 1.2-2.5 4-3.2-4-1.5 2.3-2.3-1-1.8 4.6-2.5-1.6-1.8 2.3-3 4-.6-.6-3 3.3-3.8-2.3-1.5 3.2-3.2v-1.6l-2-2 1-1.5 3.3 1.5 5.6-1-1.3-3.7.5-1.3 4-.2-1.5-2 .2-4-2-1.2-5-.8 4.4-3.5 4.6-1.4-.3-2 2.2-3.4 23.3-3.5-4 3.5-1.2 3.2 1.6 2.2-1.5 1.2zM561.8 36.2l.8.7 9-22.8 2 .8h4.7l10 2.8 3 4 5.7 2.5 1 2-.2 2.4-4.4 4.6-.7 2 2 3.5 4.8 4.6 2.2 1.2 8.3.6 5.8 2.3 2 2.2 1.8 5 8.2 2.5 4.8 6.7 2.8.6 3.3 5-.8 2.5.6 5.3-.8 2.4.6 5.7-.5 1.6-6.6 1.3-1.2 3.5-2.6-1.7-1 1.6 3 3.4.3 1.7-5 2-2-1.2 1-3H621l-.8 3.7-1.7 4v3l-2.5 1.5-.2 3.2-1.6 3.3-1.6 6.3 1.3 5.4-3.4-.3 5 4.8.7 3.4 4 1 8-2.3 3-2.4 4.5-.3 2.5-3.2 1.7-.3 2.5 2.8.2 5-1.4 2.8 3 3.7 3.3 1 1 2.5-.5 3.5.7 1 4 1.2 3 2.5 5 1.3 3-.6 4 1 1.7 2.8 2.3-.7 3-2.2 3.4 1.7 3-.7 1.3 2-.5 2.5 7 4.3 1.5 2.7-.8 3.4 4.3.2 1.6 2.5 6 3.6 3.3 1 12.2 6.5 1.2 5.3-1.2 4.6h-1.7l-3-3-2.5.2 2.8 6.3.5 3-2 5 3.2 2.4.2 1.4-3.3 1.8-1.7 2 2 4-.2 1.5-2.6-.4-5.4-1.8-2.5-2.6-1.6-.4-2.4-4.5-1.8 6-2.7-1-.7-3.7-4.7-6-1.3-3.2-3-2.2-.8-2-1.8.5-2.2-2.3-2.4-.3-2.4-1.7-5.7-8-6.2-3.3-2-4.7-2.8-1-1.5-2-2-7.4-2-3-2.7-2-5.2-.5-3-5-1.4-.8-6-1v2.4l4.8 1.2 2-.6.8 3.7 1.6 1.8 6.8 1.6 3.8 4.3-.3 6.7.4 2 4.2 1 1.5 3.4 7.7 7 2.2 5 2.5 3.7 2.6 2.6 4-.2.6 4 3.5.6 1.8 1.3 3.4 4.8 1 5.4 2 3 2.8 1.4 7.6-.7 1.4-.8 2.4 3.5 3.6 1 4 .4 4 1.3-3.2 2-4.5.7-2.5 2 3.6 1.2 5.5 3.2 1-3h2l.6 3.7-1 2.2 1 2 2 .4V248l-.6 3.4-2.2 1.8-1.8-1.6-2.5-6-2.6.8-1.8-.5-3-5.4-2-1.5-1 3 1.8 1.3-3 2.2v2.3l3.8 2.6 1 3.2 2.3 4.2-.6 2-7.7 1.5-3.7 1.6-1.4-2.5-4.5-4.5-.7-1.8-2-.8-6-9.3-4-2-4.8-8-5-4.7-1.4 1.2.2 3.3 3 1.3 4.2 7.2 3 2 1.5 1.8 7 11.8 7.3 4.6 3 2.8 3.5 2 6.2-2.6 3 1.6-.6 4.2 2 2.2 1.4-1 4.8 3.5.7 1.8-3.3 2 .4 2.2 4-1 1 .6.3 3.4-1 5-1.3 1.8-5.8 1.3-4 3.4-3 .3-1-4.7-1.4-1.7-7-3-2.3-4-1.6.6-5-4-.8-3 .8-3.4-.7-3.2-1.7-2.5-2-1.6-1.4 1-5.8 1-2.2 2-1.3-3.2-8.8-3.6-.2-5h-1.6l-.3 4.3-2.7 2.6-2.3.3-5-8-2.2-1.3-4 3-4.5-3.3-4 1.4-4.4-1.4-4 .2-3-2.5-2.7 2.6.4 1.6 9.7 3h8.3l2.2 2.5 4.6-3.6 2 1 1.5 4.6 6.8 4.2 2 .7 8.8-.3 1.4.7 2.5 4.2 4.4 1.6 2.5-4.7 2 .5.4 4.5 1 5-1.5 4.7 1.4 2.8 8.5 1.6-.7 3 2.8.8 5.6 5 2 5.5-1.8 2.5v2.7l6-4.2 2.4-.6 5.3.7 3.7 1.2 1.5-3.4-2.7-2-.3-2.5 2-1.3 4-.4 14 5 4.6.4 2-1 2-2 3 .2 1.6 2.4 3.3 12.6 10.4 25.7 1.3 5-51.3 1.4-32.3 1.3-55.3 2-36 1-24 .8-30.2.5-30.2.4-30.2.3-64.8.3h-57.8l-57-3.2-53.8-2.4-38-3.7h-2.2l-1.6-2-24-1.6-1.6.2-3 2-45-1.4-40.6-1.7-50.6-2.2-30.4-1.5 4.5-3.5 11.2-3.6 9.3-.5 7-3.7 10-3 10-1 1.5-.8.5-3 2-2.3 1.8-3.8 3.3-2.5h4l12.2-4 2.6-2.3.7-7 4-3.5 8.7-4 2.4-3.5v-5.4l2.6-2.8 4.8-3 25.2-11.5 2.4-1.5 38-30.3 1.3 2-.4 2.7-2.5 1.7v2.4l3.4 2.4 1 2-.4 6 1 1.6 4.4 3.4 2.3 4 2.5 2.7 5 .6 2.6 2 2.5 3.3 6.8 4 5.8.6 3.7-1 5-5.2 3-1.2 3.8-.3 2.8-2.4 1.7-3.7 1.6-1.6h2l4 4.6 5 3.3 2.3 3 9-4 10-1.2 3.4-1.5 4.2 1.2 6.3-3.6 1.7-2.4-1.4-6 1.3-2.5 2-1 4.5.7 1.4 2.4 5 2 8.7-5 8.7-4 2.2-.7h4l.4 3 2.7 1.6 3.5-3 11.8-6.6.8-2.5-2-2.3.5-2.7 6.8-4.8v-3.5l-5-3.3v-2.2l6.2-11.6 1.3-4 20-22.4 5.3-10.5 2.2-6.8.4-4.2 4.4-4 2-2.7 3.2-2 2.3-3.3-.7-3 3.3-6.5 3.2-2 1-3.6 2.7-4.5.4-7 2.4-4 .8-5.6 1.7-1.4 8 3 4.4 7.5v3.2l19.6 6.5 1.6-.7 7.2-10.3 1.2-2.3 2.6-9.6 1.5-3 4.7-4.2 1-6.8 4.2-8.3 4-5.3 1-.4 10.2 7 1.7-.8 11-16.6 3 1.6 5-2.3 2.6-4.6 4.6-2 3-4.3v-2l1.4-2.7 3.7-4.5 3.7-3 3.6-5-.6-4.2 1-4.8.3-4.5 4-6.5.8-3.4-.3-6.2 2-4.3 1.3-.7L534 14.4z" class="cls-1"/>
  </g>
</svg>
